<svg xmlns="http://www.w3.org/2000/svg" width="91" height="91" viewBox="0 0 91 91">
    <g fill="#FFF" fill-rule="evenodd">
        <path d="M76.031 11.36C67.961 4.297 57.412 0 45.871 0 20.579 0 0 20.581 0 45.88c0 11.542 4.296 22.093 11.358 30.165l-.019.02.644.643c.194.194.426.292.698.292.271 0 .503-.098.698-.292l2.5-2.501c.215-.214.317-.45.307-.713-.01-.261-.112-.49-.306-.683l-.562-.562c-6.12-7.083-9.835-16.297-9.835-26.37 0-22.274 18.118-40.395 40.389-40.395 10.067 0 19.276 3.713 26.355 9.83l.57.569c.194.195.426.292.698.292.27 0 .503-.097.697-.292l2.501-2.5c.213-.216.316-.452.307-.715-.01-.26-.112-.489-.307-.683l-.643-.644-.019.019zM78.78 16.289l-2.476 2.475c-.21.213-.311.447-.303.707.01.259.111.484.303.677l.638.637-.005.005c5.4 6.82 8.638 15.43 8.638 24.788 0 22.052-17.93 39.993-39.966 39.993-9.352 0-17.956-3.24-24.771-8.644l-.041.042-.637-.638c-.194-.193-.424-.289-.692-.289-.268 0-.499.096-.69.29l-2.476 2.475c-.21.211-.311.446-.302.705.01.26.111.486.302.678l.638.636.037-.036C24.794 87.167 34.761 91 45.61 91 70.64 91 91 70.623 91 45.578c0-10.855-3.83-20.83-10.203-28.652l-.637-.637c-.192-.193-.422-.289-.69-.289-.269 0-.499.096-.69.289"/>
        <path fill-rule="nonzero" d="M25 65l.644-38h7.041l5.292 26.319L43.499 27h6.81L51 65h-5.062l-.552-26.412L40.094 65h-4.096l-5.384-26.506L30.108 65H25zm21 0V27h8.953c3.094 0 5.508.422 7.242 1.267 1.735.844 2.97 2.142 3.703 3.893.735 1.752 1.102 3.972 1.102 6.662V52.71c0 2.752-.367 5.043-1.102 6.872-.734 1.83-1.953 3.19-3.656 4.082C60.54 64.554 58.203 65 55.234 65H46zm7-5h2.1c1.587 0 2.722-.28 3.407-.837.684-.558 1.104-1.372 1.26-2.442.155-1.07.233-2.38.233-3.93V38.372c0-1.52-.109-2.744-.327-3.674-.217-.93-.669-1.613-1.353-2.047-.684-.434-1.789-.651-3.313-.651H53v28z"/>
    </g>
</svg>
