<?xml version="1.0" standalone="no"?>
<svg
  width="600"
  height="600"
  viewBox="0 0 600 600"
  xmlns="http://www.w3.org/2000/svg"
>
  <g transform="translate(300,300)">
    <path d="M132.6,-216.4C159.3,-189.3,159.7,-131.2,181.2,-83.1C202.7,-34.9,245.4,3.2,253.7,45.8C262.1,88.3,236.1,135.2,196,155.3C155.9,175.4,101.8,168.8,56.8,172.3C11.8,175.9,-23.9,189.7,-48.1,176.7C-72.3,163.8,-84.9,124.1,-118.3,96.5C-151.8,68.8,-206,53.1,-230.7,20.3C-255.4,-12.4,-250.5,-62.3,-226.9,-99.2C-203.2,-136.2,-160.8,-160.2,-119.9,-180.9C-78.9,-201.5,-39.5,-218.7,6.8,-229.3C53,-239.8,106,-243.6,132.6,-216.4Z" fill="#2a1fa3" />
  </g>
</svg>
  