<svg xmlns="http://www.w3.org/2000/svg" width="145" height="145" viewBox="0 0 145 145">
    <g fill="#F5EEE2" fill-rule="evenodd">
        <path d="M121.452 18.146C108.561 6.864 91.711 0 73.275 0 32.872 0 0 32.876 0 73.288c0 18.439 6.863 35.292 18.143 48.186l-.03.032 1.028 1.028c.31.31.682.466 1.116.466.433 0 .804-.156 1.114-.466l3.995-3.996c.342-.342.505-.718.489-1.139-.016-.417-.179-.781-.489-1.091l-.897-.897C14.694 104.097 8.758 89.377 8.758 73.288 8.758 37.706 37.7 8.76 73.275 8.76c16.082 0 30.793 5.932 42.101 15.702l.91.91c.31.311.68.465 1.115.465.433 0 .804-.154 1.114-.466l3.995-3.994c.34-.344.505-.72.49-1.14-.017-.418-.18-.782-.49-1.092l-1.028-1.028-.03.03zM125.447 25.462l-3.96 3.961c-.337.34-.499.714-.485 1.131.016.413.177.775.485 1.082l1.02 1.02-.008.009c8.64 10.911 13.82 24.686 13.82 39.66 0 35.283-28.686 63.989-63.944 63.989-14.963 0-28.73-5.184-39.635-13.83l-.066.066-1.019-1.02c-.309-.31-.677-.462-1.105-.462-.43 0-.8.153-1.105.462l-3.961 3.96c-.337.34-.499.715-.484 1.13.015.415.178.777.484 1.084l1.02 1.018.06-.057C39.07 138.868 55.017 145 72.373 145 112.422 145 145 112.397 145 72.324c0-17.367-6.128-33.327-16.324-45.842l-1.02-1.02c-.307-.31-.675-.462-1.103-.462-.431 0-.8.153-1.106.462"/>
        <path fill-rule="nonzero" d="M40 104l1.028-61h11.231l8.442 42.248L69.511 43h10.864l1.101 61h-8.075l-.88-42.399L64.077 104h-6.533l-8.59-42.55-.807 42.55H40zm33.5 0V43h14.282c4.936 0 8.787.678 11.553 2.033 2.767 1.356 4.736 3.44 5.908 6.251C106.414 54.095 107 57.66 107 61.978v22.291c0 4.418-.586 8.096-1.757 11.033-1.172 2.937-3.116 5.12-5.833 6.552-2.717 1.43-6.443 2.146-11.179 2.146H73.5zm11.167-8.026h3.35c2.53 0 4.342-.448 5.434-1.344 1.092-.896 1.762-2.203 2.01-3.92.248-1.717.372-3.82.372-6.31V61.256c0-2.439-.173-4.405-.52-5.898-.348-1.493-1.068-2.589-2.16-3.285-1.092-.697-2.853-1.046-5.285-1.046h-3.201v44.948z"/>
    </g>
</svg>
